# xmcd
#
# Track frame offsets:
#	150
#	14098
#	29684
#	47216
#	59431
#	77376
#	89232
#	106250
#	120502
#	131724
#	150824
#	161799
#
# Disc length: 2577 seconds
#
# Revision: 0
# Processed by: cddbd v1.5.2PL0 Copyright (c) Steve Scherf et al.
# Submitted via: dBpowerAMP V4.0
#
DISCID=9c0a0f0c
DTITLE=The Good, The Bad and The Queen - The Good, The Bad and The Queen
DYEAR=2007
DGENRE=Undefined
TTITLE0=History Song
TTITLE1=80's Life
TTITLE2=Norther Whale
TTITLE3=Kingdom Of Doom
TTITLE4=Herculean
TTITLE5=Behind The Sun
TTITLE6=The Bunting Song
TTITLE7=Nature Springs
TTITLE8=A Soldier's Tale
TTITLE9=Three Changes
TTITLE10=Green Fields
TTITLE11=The Good, The Bad and The Queen
EXTD=The first Hit-Album of Damon Albarn's (Blur, Gorillaz) new band "The Good,The Bad and The Queen\nproduced by Danger Mouse (Gnarlz Barkley]\nLabel: Parlophone\n(P) and (c) 2007 copyright by Thirteen Limeted under Licence to EMI Records Ltd.
EXTT0=
EXTT1=
EXTT2=
EXTT3=
EXTT4=
EXTT5=
EXTT6=
EXTT7=
EXTT8=
EXTT9=
EXTT10=
EXTT11=
PLAYORDER=
